# xmcd
#
# Track frame offsets:
#	150
#	20325
#	34475
#	47775
#	58462
#	74925
#	85550
#	105437
#	122350
#	135525
#	151525
#	165500
#	179700
#	194025
#
# Disc length: 2751 seconds
#
# Revision: 0
# Processed by: cddbd v1.4PL0 Copyright (c) Steve Scherf et al.
# Submitted via: audiograbber 1.82.02
#
DISCID=c30abd0e
DTITLE=Diana Ross - Diana's Duets
DYEAR=1990
DGENRE=Motown
TTITLE0=Endless love
TTITLE1=I'm gonna make you love me
TTITLE2=My mistake (was to love you)
TTITLE3=I'll try something new
TTITLE4=You're a special part of me
TTITLE5=I second that emotion
TTITLE6=I'll keep my light in the window
TTITLE7=Try it baby
TTITLE8=Stop, look, listen (to your heart)
TTITLE9=Pops, we love you
TTITLE10=Uptight (everything's alright)
TTITLE11=You are everything
TTITLE12=Stubborn kind of fellow
TTITLE13=Ain't nothing like the real thing
EXTD=
EXTT0=
EXTT1=
EXTT2=
EXTT3=
EXTT4=
EXTT5=
EXTT6=
EXTT7=
EXTT8=
EXTT9=
EXTT10=
EXTT11=
EXTT12=
EXTT13=
PLAYORDER=
